<?xml version="1.0" standalone="no"?>
<!DOCTYPE svg PUBLIC "-//W3C//DTD SVG 20010904//EN"
 "http://www.w3.org/TR/2001/REC-SVG-20010904/DTD/svg10.dtd">
<svg version="1.0" xmlns="http://www.w3.org/2000/svg"
 width="640.000000pt" height="640.000000pt" viewBox="0 0 640.000000 640.000000"
 preserveAspectRatio="xMidYMid meet">

<g transform="translate(0.000000,640.000000) scale(0.100000,-0.100000)"
fill="#000000" stroke="none">
<path d="M3010 5321 c-569 -54 -1077 -322 -1450 -766 -235 -278 -394 -629
-461 -1015 -30 -167 -32 -479 -5 -650 59 -378 209 -726 436 -1009 346 -431
809 -699 1363 -788 158 -25 486 -22 647 6 464 80 855 283 1171 607 329 338
507 688 590 1161 33 184 33 484 0 666 -22 126 -51 250 -71 301 l-10 26 -677 0
-677 0 412 414 c227 228 412 421 412 429 0 34 -230 222 -390 319 -230 139
-482 232 -753 278 -133 22 -405 33 -537 21z m443 -1225 c136 -40 301 -132 371
-205 l30 -31 -482 -483 c-265 -266 -482 -491 -482 -500 0 -16 46 -17 590 -17
l590 0 -36 -72 c-122 -244 -328 -412 -599 -490 -68 -19 -103 -23 -235 -23
-132 0 -167 4 -235 23 -330 95 -562 323 -662 649 -24 79 -27 104 -27 248 -1
138 2 171 22 240 103 357 359 597 723 680 103 24 321 14 432 -19z"/>
</g>
</svg>
