<svg viewBox="0 0 400 300" xmlns="http://www.w3.org/2000/svg"><ellipse cx="200.18" cy="237.88" fill="#e6e6e6" opacity=".45" rx="145" ry="20.72"/><path d="m307.38 220s-10.13-2.72-12.38-12.14c0 0 15.68-3.24 16.2 13z" fill="#68e1fd" opacity=".58"/><path d="m308.62 219s-7.12-11.16-.94-21.64c0 0 12 7.53 6.72 21.64z" fill="#68e1fd" opacity=".73"/><path d="m310.45 219s3.68-11.83 15-14.11c0 0 2.15 7.66-7.25 14.11z" fill="#68e1fd"/><path d="m303.1 218.71 2.11 14.04h12.93l1.85-14.04z" fill="#24285b"/><path d="m180.85 174.65-11 57.33h53.66l-11-57.33z" fill="#c9c9c9"/><path d="m94.82 53.15h209.5a0 0 0 0 1 0 0v136.34a0 0 0 0 1 0 0h-203.24a6.26 6.26 0 0 1 -6.26-6.26v-130.08a0 0 0 0 1 0 0z" fill="#e6e6e6"/><path d="m162.51 226.32h68v11.57h-68z" fill="#e6e6e6"/><path d="m94.82 53.15h209.5v120.67h-209.5z" fill="#fff" opacity=".56"/><path d="m99.94 104s5-4.13 6.56 3.6-1.2 17.46 4.41 24.1 26.16-15.05 36.55 21.38l4.2 4.14 14.69-12.38 22.4 8.53 36.76-7.37 9.34-38.71 5-4.64s18.25 30.85-10.22 57.19c0 0-20.22 17.41-52.8 4.33l-6.43-3.33-20.35 28.67-16.89-.21-15.33-25.13-19.71-38.35-2.74-21.47z" opacity=".08"/><path d="m96.45 235.51s-1.79 2.19-.74 4.36-.64 3.91-2.27 2.37-2.11-7.76-2.11-7.76l3.06-1.64z" fill="#68e1fd"/><path d="m115 129.13s12.68-.13 17.68 11.87 5.5 31.17 5.5 31.17l23-15-26 25.22-10.36-13.23z" fill="#68e1fd"/><path d="m115 129.13s12.68-.13 17.68 11.87 5.5 31.17 5.5 31.17l23-15-26 25.22-10.36-13.23z" fill="#fff" opacity=".3"/><path d="m148.84 219.53s1.09 2.61 3.5 2.68 3.17 2.4 1 3.12-7.84-1.76-7.84-1.76v-3.47z" fill="#68e1fd"/><path d="m97.52 109.14a32.6 32.6 0 0 1 3.9 7.79 2.63 2.63 0 0 1 -1.87 3.23 5.81 5.81 0 0 1 -6.11-1.58l-3.61-3.22a4.71 4.71 0 0 1 -.67-5.4c1.54-3.31 6.69-3.55 8.36-.82z" fill="#f4a28c"/><path d="m91.46 115.24 2.39 14.26 9.68.45-5.63-11.15z" fill="#f4a28c"/><path d="m99.24 112 2.27 1a.84.84 0 0 1 .19 1.4l-1.56 1.32z" fill="#f4a28c"/><path d="m98.74 120.48a6.46 6.46 0 0 1 -3.36-.71s.28 3.75 5 3.9z" fill="#ce8172" opacity=".31"/><path d="m74.64 140.64c11.21-14.49 36.92-16 49-7.72 11.95 8.21 6.21 56.77 6.21 56.77l-28.81 7.94s-42.72-32.4-26.4-56.99z" fill="#68e1fd"/><path d="m101.08 197.63 3.61 8.71a18.32 18.32 0 0 1 -3.52 14.58l-9 11.59 5 3.55 13-10.38a22.77 22.77 0 0 0 8.6-17.73v-4.46l4.83-11.55z" fill="#24285b"/><path d="m87.77 136.5s13.84 5.57 12.58 19.8 3 23 25.23 22.18l-3.58 13.34-20.93 5.81a119.89 119.89 0 0 1 -18.39-23l-1.36-2.2 6.55-18.85z" opacity=".08"/><path d="m101.08 197.63 13.45 9.77 17.79-5.51a6.66 6.66 0 0 1 8.43 4.79l3.25 13.55 6-.51-1.95-18.31a13.57 13.57 0 0 0 -13.31-12.12 64.94 64.94 0 0 0 -26.34 5.19z" fill="#24285b"/><path d="m92.14 119.29-.91-.6a26.79 26.79 0 0 0 -8.38-3.45 3.59 3.59 0 0 1 -1-.44 3 3 0 0 1 -.39-4.77c2.1-2.09-1.26-2.72-.55-4.89.63-1.91 2.3-2.06 3.69-.62s3.78.34 2.73-1.37.41-3.08 2.83-2.5 2 3.58 3.95 1.17 4.51-2.84 5.11-.17 2.83 5.86-2.16 6.93-6.32-1.24-6.5 2.09c-.14 3.11 4.15 3.98 1.58 8.62z" fill="#24285b"/><path d="m93.19 113.78s-1.88-1.6-3-.08 1.62 3.83 3.54 2.16z" fill="#f4a28c"/><path d="m148.34 132.58h12.67v44.37h-12.67z" fill="#24285b" transform="matrix(.7122711 .70190447 -.70190447 .7122711 153.14 -64.04)"/><path d="m148.34 132.58h12.67v44.37h-12.67z" fill="#fff" opacity=".3" transform="matrix(.7122711 .70190447 -.70190447 .7122711 153.14 -64.04)"/><path d="m124.42 150.65h20.84v49.67h-20.84z" fill="#24285b" transform="matrix(.7122711 .70190447 -.70190447 .7122711 161.98 -44.15)"/><path d="m227.6 81a45.42 45.42 0 1 0 .47 64.23 45.42 45.42 0 0 0 -.47-64.23zm-55.69 56.5a33.92 33.92 0 1 1 48-.35 33.92 33.92 0 0 1 -48 .35z" fill="#ffd200"/><path d="m129.71 185 .93 4.71s8.38 1.41 9.92-3.94-9.25-3.44-10.85-.77z" fill="#f4a28c"/><path d="m89.66 137.59a9.89 9.89 0 0 0 -13 1.29c-7.73 8.12-17.21 31.12-5.73 46.31 14.37 19 34.05 12.38 59.71 4.54l-1.21-6.11s-47.85 6.44-42.62-14.21c4.19-16.35 9.82-26.58 2.85-31.82z" fill="#68e1fd"/><path d="m89.66 137.59a9.89 9.89 0 0 0 -13 1.29c-7.73 8.12-17.21 31.12-5.73 46.31 14.37 19 34.05 12.38 59.71 4.54l-1.21-6.11s-47.85 6.44-42.62-14.21c4.19-16.35 9.82-26.58 2.85-31.82z" fill="#fff" opacity=".3"/><path d="m161.19 157.16c.2.3 9-1.52 6.13-6.21s-8.11 3.23-6.13 6.21z" fill="#f4a28c"/><g fill="#68e1fd"><path d="m193 104-4-.65s.55-3.63-1.14-5.94a5 5 0 0 0 -3.51-1.93l.58-3.95a8.88 8.88 0 0 1 6.17 3.54c2.72 3.66 1.9 8.7 1.9 8.93z"/><path d="m173.66 111.08-3.24-2.35c2.81-3.88 6.05-5.93 9.63-6.09 5.71-.25 9.84 4.49 10 4.69l-3 2.63s-3.12-3.52-6.85-3.32c-2.29.11-4.49 1.6-6.54 4.44z"/><path d="m176 124.7-3.92-.79c.95-4.7 3-7.91 6.25-9.53 5-2.58 10.81 0 11.06.12l-1.67 3.63.83-1.82-.82 1.82s-4.29-1.88-7.61-.18c-2.04 1.05-3.42 3.32-4.12 6.75z"/><path d="m178.61 135.59c-.65-4.75.28-8.48 2.75-11.06 3.93-4.1 10.22-3.57 10.48-3.54l-.36 4s-4.67-.37-7.24 2.34c-1.58 1.66-2.14 4.26-1.66 7.73z"/><path d="m198.92 102.78c0-.22-.84-5.25 1.84-8.93a8.91 8.91 0 0 1 6.17-3.55l.59 4a5 5 0 0 0 -3.52 1.89c-1.69 2.31-1.14 5.9-1.14 5.94z"/><path d="m220.1 109.88c-2-2.84-4.25-4.33-6.54-4.44-3.7-.18-6.82 3.28-6.85 3.31l-3-2.62c.18-.2 4.33-4.95 10-4.69 3.58.16 6.82 2.21 9.63 6.09z"/><path d="m217.75 123.5c-.69-3.45-2.08-5.72-4.13-6.76-3.31-1.68-7.54.17-7.58.19l-1.67-3.64c.24-.11 6-2.69 11.06-.12 3.19 1.63 5.29 4.84 6.24 9.53z"/><path d="m215.14 134.38-4-.54c.48-3.48-.08-6.09-1.67-7.75-2.57-2.67-7.18-2.33-7.22-2.32l-.37-4c.26 0 6.55-.57 10.47 3.53 2.52 2.61 3.45 6.33 2.79 11.08z"/></g><path d="m193 104-4-.65s.55-3.63-1.14-5.94a5 5 0 0 0 -3.51-1.93l.58-3.95a8.88 8.88 0 0 1 6.17 3.54c2.72 3.66 1.9 8.7 1.9 8.93z" opacity=".08"/><path d="m173.66 111.08-3.24-2.35c2.81-3.88 6.05-5.93 9.63-6.09 5.71-.25 9.84 4.49 10 4.69l-3 2.63s-3.12-3.52-6.85-3.32c-2.29.11-4.49 1.6-6.54 4.44z" opacity=".08"/><path d="m176 124.7-3.92-.79c.95-4.7 3-7.91 6.25-9.53 5-2.58 10.81 0 11.06.12l-1.67 3.63.83-1.82-.82 1.82s-4.29-1.88-7.61-.18c-2.04 1.05-3.42 3.32-4.12 6.75z" opacity=".08"/><path d="m178.61 135.59c-.65-4.75.28-8.48 2.75-11.06 3.93-4.1 10.22-3.57 10.48-3.54l-.36 4s-4.67-.37-7.24 2.34c-1.58 1.66-2.14 4.26-1.66 7.73z" opacity=".08"/><path d="m198.92 102.78c0-.22-.84-5.25 1.84-8.93a8.91 8.91 0 0 1 6.17-3.55l.59 4a5 5 0 0 0 -3.52 1.89c-1.69 2.31-1.14 5.9-1.14 5.94z" opacity=".08"/><path d="m220.1 109.88c-2-2.84-4.25-4.33-6.54-4.44-3.7-.18-6.82 3.28-6.85 3.31l-3-2.62c.18-.2 4.33-4.95 10-4.69 3.58.16 6.82 2.21 9.63 6.09z" opacity=".08"/><path d="m217.75 123.5c-.69-3.45-2.08-5.72-4.13-6.76-3.31-1.68-7.54.17-7.58.19l-1.67-3.64c.24-.11 6-2.69 11.06-.12 3.19 1.63 5.29 4.84 6.24 9.53z" opacity=".08"/><path d="m215.14 134.38-4-.54c.48-3.48-.08-6.09-1.67-7.75-2.57-2.67-7.18-2.33-7.22-2.32l-.37-4c.26 0 6.55-.57 10.47 3.53 2.52 2.61 3.45 6.33 2.79 11.08z" opacity=".08"/><ellipse cx="196.68" cy="113.85" fill="#68e1fd" rx="14.83" ry="17.83"/><ellipse cx="200.67" cy="107.58" fill="#fff" opacity=".3" rx="5.56" ry="6.69" transform="matrix(.89446661 -.44713474 .44713474 .89446661 -26.93 101.06)"/><circle cx="110.91" cy="65.41" fill="#24285b" r="4.41"/><circle cx="124.02" cy="65.41" fill="#68e1fd" r="4.41"/><circle cx="136.37" cy="65.41" fill="#ffd200" r="4.41"/><path d="m258.26 147.26h28v8.49h-28z" fill="#c9c9c9"/><path d="m258.26 74.32h28v60.06h-28z" fill="#c9c9c9" opacity=".3"/></svg>